<svg version="1.0" xmlns="http://www.w3.org/2000/svg" width="529" height="323" viewBox="0 0 529 323">
  <path d="M286.5 321.6c-5.7-2.6-9.5-8.5-9.5-14.6 0-4.3 3.6-13.2 8.1-19.9 8.5-12.8 34.9-38.1 56.4-54.3 16.9-12.6 64.7-45.4 71-48.7 4-2.1 8.7-3.5 14-4.2 14.4-2 18.1-2.9 25.5-6.5 23.4-11.2 36.8-41.9 26.3-60.5-9.7-17.3-38.1-15.3-58.6 4-10.7 10.1-13.6 16.2-16.6 35.1-1 6.3-2.6 13.2-3.4 15.3-3.7 8.8-23.7 25.4-59.2 49.1-23.8 15.9-31.6 19.9-39.9 20.4-5.6.4-6.3.2-8.6-2.3s-2.5-3.4-2.5-12.1c0-5.2-.1-9.4-.2-9.4s-5.8 8.4-12.6 18.8c-31.6 47.9-52.4 66-65.7 57-5.6-3.9-7.5-7.3-7.5-13.6 0-17.8 24.5-44.9 67.9-75.3 19.8-13.9 30.3-22.7 47.6-40.5 16.8-17.3 21.7-20.5 35.1-22.8 10.5-1.8 13-2.8 19.1-7.3 9.5-7 36-51.3 34.4-57.6-.4-1.7-1.3-2.7-2.4-2.7-2.4 0-5.7 3.6-19.4 21.5-6.4 8.3-12.7 16.1-14.1 17.3-2.8 2.6-5.4 2.6-7.1 0-1.5-2.5.1-5.2 15.9-26.3 11.1-14.8 13.4-18.5 13.2-21-.2-2.6-.6-3-3.1-3-2.4 0-4.4 1.6-11.4 9.5-19.9 22.2-26.5 29-28.1 29-2.2 0-4.1-1.9-4.1-4.1 0-2 8-12.3 21.6-27.4 10.6-12 11.8-13.8 10.9-16.5-1.6-5.1-8-1.2-29.7 17.8-13.4 11.8-21.4 20.8-25 28.2-1.8 3.7-2.2 6.5-2.3 16.5-.3 14.9-2.5 21-12 33.7-20.2 26.9-53.2 47.1-89.8 55-13.9 3-41.9 3.2-54.7.4-22.1-4.8-41.1-14.9-55.4-29.2-7.7-7.8-7.3-8.4 3.1-6.4 10.8 2.2 41.8 2.5 55.5.5 13.1-1.8 30.9-6.6 44.8-11.9 11-4.3 27-12.3 27-13.6 0-1.2-.2-1.2-3.4 0-3.8 1.4-24.3 4.7-37 5.9-29.8 2.9-62.3-.4-88.1-9-26.8-9-50.1-26.1-62.3-45.9-2.8-4.6-5-8.5-4.9-8.7.2-.1 4.6 1.3 9.8 3.3 28.1 10.5 50 13.9 89.4 13.9 30.9 0 51.5-2.1 77.3-8 10.4-2.4 36.3-9.7 35.9-10.2-.3-.2-8.3.3-17.8 1.2C122.6 92.1 40.2 66.7 4.5 8.9 2.1 4.9.2 1.5.4 1.2.7 1 7.6 2.9 15.9 5.5 70.2 22.3 134.8 28.7 210.5 25c20.5-1.1 57.7-3.6 96-6.5 10.5-.8 28-2.1 39-3 33.8-2.5 50.4-1.6 72.7 4 34 8.6 66.5 31.6 86.1 61.1 15.8 23.7 23.9 50.5 23.9 78.4-.1 39.3-14.8 73.6-43.7 102.5-17.4 17.5-35.1 28.5-56.8 35.4-15.4 4.9-27.3 6.4-46.6 5.9-19.8-.6-30.3-2.6-32.8-6.4-2.4-3.7-1.3-14.8 2.6-26.3 1.7-5.2 3-9.5 2.8-9.7s-3.2 4-6.8 9.4c-14.2 21.5-30.7 40.8-40.7 47.6-7.7 5.3-14.4 6.7-19.7 4.2" fill="#fff"/>
</svg>
